<svg width="128" height="128" viewBox="0 0 128 128" xmlns="http://www.w3.org/2000/svg">
  <defs>
    <!-- 简洁渐变 -->
    <linearGradient id="bgGrad" x1="0%" y1="0%" x2="100%" y2="100%">
      <stop offset="0%" style="stop-color:#6366f1;stop-opacity:1" />
      <stop offset="100%" style="stop-color:#8b5cf6;stop-opacity:1" />
    </linearGradient>
    
    <linearGradient id="toolGrad" x1="0%" y1="0%" x2="100%" y2="100%">
      <stop offset="0%" style="stop-color:#f59e0b;stop-opacity:1" />
      <stop offset="100%" style="stop-color:#ea580c;stop-opacity:1" />
    </linearGradient>
    
    <!-- 阴影 -->
    <filter id="shadow" x="-20%" y="-20%" width="140%" height="140%">
      <feDropShadow dx="2" dy="4" stdDeviation="3" flood-color="#000000" flood-opacity="0.2"/>
    </filter>
  </defs>
  
  <!-- 主背景圆 -->
  <circle cx="64" cy="64" r="56" fill="url(#bgGrad)" filter="url(#shadow)"/>
  
  <!-- 白色画板区域 -->
  <circle cx="64" cy="64" r="44" fill="white" opacity="0.95"/>
  
  <!-- 简化的绘图工具（铅笔） -->
  <g transform="translate(64, 64)">
    <!-- 铅笔主体 -->
    <rect x="-2" y="-20" width="4" height="28" rx="2" fill="url(#toolGrad)" transform="rotate(-45)"/>
    <!-- 铅笔尖 -->
    <path d="M 0,-20 L 3,-14 L -3,-14 Z" fill="#374151" transform="rotate(-45)"/>
    <!-- 橡皮擦 -->
    <rect x="-2.5" y="8" width="5" height="4" rx="2" fill="#fbbf24" transform="rotate(-45)"/>
  </g>
  
  <!-- 简化的所有权标记（小皇冠） -->
  <g transform="translate(64, 35)">
    <path d="M -6,-2 L -2,2 L 0,-2 L 2,2 L 6,-2 L 4,6 L -4,6 Z" fill="#fbbf24"/>
    <circle cx="-2" cy="1" r="1" fill="#f59e0b"/>
    <circle cx="0" cy="0" r="1" fill="#f59e0b"/>
    <circle cx="2" cy="1" r="1" fill="#f59e0b"/>
  </g>
  
  <!-- 简化的绘图元素 -->
  <!-- 圆形 -->
  <circle cx="45" cy="75" r="4" fill="none" stroke="#6366f1" stroke-width="2"/>
  <!-- 矩形 -->
  <rect x="75" y="71" width="8" height="8" rx="1" fill="none" stroke="#8b5cf6" stroke-width="2"/>
  <!-- 连接线 -->
  <line x1="49" y1="75" x2="75" y2="75" stroke="#94a3b8" stroke-width="1.5" stroke-dasharray="2,2"/>
  
  <!-- 桌面应用标识（简化显示器） -->
  <g transform="translate(64, 95)">
    <rect x="-8" y="-4" width="16" height="8" rx="1" fill="#e2e8f0"/>
    <rect x="-6" y="-2" width="12" height="4" rx="0.5" fill="#1e293b"/>
    <rect x="-1" y="4" width="2" height="2" rx="1" fill="#e2e8f0"/>
  </g>
</svg>
