<svg width="128" height="128" viewBox="0 0 128 128" xmlns="http://www.w3.org/2000/svg">
  <defs>
    <!-- Modern gradient definitions -->
    <linearGradient id="bgGradient" x1="0%" y1="0%" x2="100%" y2="100%">
      <stop offset="0%" style="stop-color:#667eea;stop-opacity:1" />
      <stop offset="100%" style="stop-color:#764ba2;stop-opacity:1" />
    </linearGradient>
    
    <linearGradient id="pencilGradient" x1="0%" y1="0%" x2="100%" y2="100%">
      <stop offset="0%" style="stop-color:#f093fb;stop-opacity:1" />
      <stop offset="100%" style="stop-color:#f5576c;stop-opacity:1" />
    </linearGradient>
    
    <linearGradient id="accentGradient" x1="0%" y1="0%" x2="100%" y2="100%">
      <stop offset="0%" style="stop-color:#4facfe;stop-opacity:1" />
      <stop offset="100%" style="stop-color:#00f2fe;stop-opacity:1" />
    </linearGradient>
    
    <!-- Subtle shadow -->
    <filter id="dropShadow" x="-20%" y="-20%" width="140%" height="140%">
      <feDropShadow dx="1" dy="2" stdDeviation="2" flood-color="#000000" flood-opacity="0.2"/>
    </filter>
  </defs>
  
  <!-- Background circle with gradient -->
  <circle cx="64" cy="64" r="60" fill="url(#bgGradient)" filter="url(#dropShadow)"/>
  
  <!-- Inner white circle for content area -->
  <circle cx="64" cy="64" r="52" fill="white" opacity="0.95"/>
  
  <!-- Main pencil tool (centered and prominent) -->
  <g transform="translate(64, 64)">
    <!-- Pencil body -->
    <rect x="-3" y="-25" width="6" height="50" rx="3" fill="url(#pencilGradient)" transform="rotate(45)"/>
    
    <!-- Pencil tip -->
    <path d="M -8 -8 L 8 -8 L 0 8 Z" fill="url(#pencilGradient)" transform="rotate(45) translate(0, -25)"/>
    
    <!-- Pencil eraser -->
    <rect x="-4" y="-30" width="8" height="6" rx="2" fill="#f8f9fa" transform="rotate(45) translate(0, 25)"/>
  </g>
  
  <!-- Minimal drawing elements -->
  <!-- Circle -->
  <circle cx="45" cy="50" r="6" fill="url(#accentGradient)" opacity="0.8"/>
  
  <!-- Square -->
  <rect x="75" y="45" width="12" height="12" rx="2" fill="url(#accentGradient)" opacity="0.8"/>
  
  <!-- Line -->
  <line x1="40" y1="80" x2="80" y2="80" stroke="#667eea" stroke-width="2" opacity="0.6" stroke-linecap="round"/>
  
  <!-- Connection dots -->
  <circle cx="40" cy="80" r="2" fill="#667eea"/>
  <circle cx="80" cy="80" r="2" fill="#667eea"/>
</svg>
