<svg width="128" height="128" viewBox="0 0 128 128" xmlns="http://www.w3.org/2000/svg">
  <defs>
    <!-- Modern flat color palette -->
    <linearGradient id="bgGradient" x1="0%" y1="0%" x2="100%" y2="100%">
      <stop offset="0%" style="stop-color:#6366f1;stop-opacity:1" />
      <stop offset="100%" style="stop-color:#8b5cf6;stop-opacity:1" />
    </linearGradient>
    
    <linearGradient id="pencilGradient" x1="0%" y1="0%" x2="100%" y2="100%">
      <stop offset="0%" style="stop-color:#ec4899;stop-opacity:1" />
      <stop offset="100%" style="stop-color:#f43f5e;stop-opacity:1" />
    </linearGradient>
    
    <linearGradient id="accentGradient" x1="0%" y1="0%" x2="100%" y2="100%">
      <stop offset="0%" style="stop-color:#06b6d4;stop-opacity:1" />
      <stop offset="100%" style="stop-color:#0891b2;stop-opacity:1" />
    </linearGradient>
  </defs>
  
  <!-- Background circle with gradient -->
  <circle cx="64" cy="64" r="60" fill="url(#bgGradient)"/>
  
  <!-- Inner white circle for content area -->
  <circle cx="64" cy="64" r="52" fill="white"/>
  
  <!-- Main pencil tool -->
  <g transform="translate(64, 64)">
    <!-- Pencil body -->
    <rect x="-3" y="-25" width="6" height="50" rx="3" fill="url(#pencilGradient)" transform="rotate(45)"/>
    
    <!-- Pencil tip -->
    <path d="M -8 -8 L 8 -8 L 0 8 Z" fill="url(#pencilGradient)" transform="rotate(45) translate(0, -25)"/>
    
    <!-- Pencil eraser -->
    <rect x="-4" y="-30" width="8" height="6" rx="2" fill="#f1f5f9" transform="rotate(45) translate(0, 25)"/>
  </g>
  
  <!-- Drawing elements -->
  <!-- Circle -->
  <circle cx="45" cy="50" r="6" fill="url(#accentGradient)"/>
  
  <!-- Square -->
  <rect x="75" y="45" width="12" height="12" rx="2" fill="url(#accentGradient)"/>
  
  <!-- Triangle -->
  <path d="M 55 75 L 65 65 L 75 75 Z" fill="url(#accentGradient)"/>
  
  <!-- Line -->
  <line x1="40" y1="80" x2="80" y2="80" stroke="#6366f1" stroke-width="2" stroke-linecap="round"/>
  
  <!-- Connection dots -->
  <circle cx="40" cy="80" r="2" fill="#6366f1"/>
  <circle cx="80" cy="80" r="2" fill="#6366f1"/>
  
  <!-- Small accent elements -->
  <circle cx="30" cy="30" r="2" fill="#ec4899"/>
  <circle cx="95" cy="35" r="2" fill="#06b6d4"/>
  <circle cx="25" cy="95" r="2" fill="#10b981"/>
  <circle cx="100" cy="90" r="2" fill="#f59e0b"/>
</svg>
