<svg width="128" height="128" viewBox="0 0 128 128" xmlns="http://www.w3.org/2000/svg">
  <defs>
    <!-- Modern gradient definitions -->
    <linearGradient id="bgGradient" x1="0%" y1="0%" x2="100%" y2="100%">
      <stop offset="0%" style="stop-color:#667eea;stop-opacity:1" />
      <stop offset="100%" style="stop-color:#764ba2;stop-opacity:1" />
    </linearGradient>
    
    <linearGradient id="pencilGradient" x1="0%" y1="0%" x2="100%" y2="100%">
      <stop offset="0%" style="stop-color:#f093fb;stop-opacity:1" />
      <stop offset="100%" style="stop-color:#f5576c;stop-opacity:1" />
    </linearGradient>
    
    <linearGradient id="accentGradient" x1="0%" y1="0%" x2="100%" y2="100%">
      <stop offset="0%" style="stop-color:#4facfe;stop-opacity:1" />
      <stop offset="100%" style="stop-color:#00f2fe;stop-opacity:1" />
    </linearGradient>
    
    <!-- Drop shadow filter -->
    <filter id="dropShadow" x="-20%" y="-20%" width="140%" height="140%">
      <feDropShadow dx="2" dy="4" stdDeviation="3" flood-color="#000000" flood-opacity="0.25"/>
    </filter>
  </defs>
  
  <!-- Background circle with gradient -->
  <circle cx="64" cy="64" r="60" fill="url(#bgGradient)" filter="url(#dropShadow)"/>
  
  <!-- Inner white circle for content area -->
  <circle cx="64" cy="64" r="52" fill="white" opacity="0.95"/>
  
  <!-- Main pencil tool -->
  <g transform="translate(64, 64)">
    <!-- Pencil body -->
    <rect x="-3" y="-25" width="6" height="50" rx="3" fill="url(#pencilGradient)" transform="rotate(45)"/>
    
    <!-- Pencil tip -->
    <path d="M -8 -8 L 8 -8 L 0 8 Z" fill="url(#pencilGradient)" transform="rotate(45) translate(0, -25)"/>
    
    <!-- Pencil eraser -->
    <rect x="-4" y="-30" width="8" height="6" rx="2" fill="#f8f9fa" transform="rotate(45) translate(0, 25)"/>
  </g>
  
  <!-- Drawing elements representing Excalidraw -->
  <!-- Circle -->
  <circle cx="40" cy="45" r="8" fill="url(#accentGradient)" opacity="0.8"/>
  
  <!-- Square -->
  <rect x="75" y="40" width="16" height="16" rx="2" fill="url(#accentGradient)" opacity="0.8"/>
  
  <!-- Triangle -->
  <path d="M 50 80 L 65 65 L 80 80 Z" fill="url(#accentGradient)" opacity="0.8"/>
  
  <!-- Line with dots -->
  <line x1="35" y1="85" x2="85" y2="85" stroke="#667eea" stroke-width="3" opacity="0.7" stroke-linecap="round"/>
  <circle cx="35" cy="85" r="3" fill="#667eea"/>
  <circle cx="85" cy="85" r="3" fill="#667eea"/>
  
  <!-- Subtle decorative elements -->
  <circle cx="25" cy="25" r="2" fill="#f093fb" opacity="0.5"/>
  <circle cx="100" cy="30" r="2" fill="#4facfe" opacity="0.5"/>
  <circle cx="20" cy="100" r="2" fill="#43e97b" opacity="0.5"/>
  <circle cx="105" cy="95" r="2" fill="#fa709a" opacity="0.5"/>
</svg>
